<?xml version="1.0" standalone="no"?>
<!DOCTYPE svg PUBLIC "-//W3C//DTD SVG 20010904//EN"
 "http://www.w3.org/TR/2001/REC-SVG-20010904/DTD/svg10.dtd">
<svg version="1.0" xmlns="http://www.w3.org/2000/svg"
 width="48.000000pt" height="48.000000pt" viewBox="0 0 48.000000 48.000000"
 preserveAspectRatio="xMidYMid meet">

<g transform="translate(0.000000,48.000000) scale(0.100000,-0.100000)"
fill="#000000" stroke="none">
<path d="M280 360 c0 -6 4 -10 9 -10 16 0 41 -31 41 -50 0 -14 -9 -20 -32 -22
-30 -3 -33 -6 -33 -38 0 -34 1 -35 43 -38 l42 -3 0 63 c0 35 -4 68 -8 73 -11
16 -62 36 -62 25z"/>
<path d="M130 241 c0 -37 2 -41 25 -41 14 0 28 -7 32 -15 6 -18 -23 -55 -44
-55 -7 0 -13 -4 -13 -10 0 -15 11 -12 47 10 34 20 48 60 41 116 -3 26 -7 29
-45 32 l-43 3 0 -40z"/>
</g>
</svg>
